<svg width="30" height="50" xmlns="http://www.w3.org/2000/svg" version="1.0">

 <g>
  <title>Layer 1</title>
  <path id="svg_2" stroke-dashoffset="0" stroke-miterlimit="4" stroke-width="0.2" fill-rule="evenodd" fill="#ff0000" opacity="0.9" d="m16.31516,43.81647c3.39584,-1.81997 5.20528,-5.11455 4.09222,-7.59296c-1.18726,-2.64364 -5.26701,-3.38972 -9.10658,-1.66537c-3.83956,1.72436 -5.99216,5.2694 -4.8049,7.91303c1.18727,2.64364 5.26701,3.38972 9.10658,1.66537c0.23997,-0.10777 0.48628,-0.19874 0.71268,-0.32007zm-1.10973,-2.24216c-0.24123,0.12433 -0.48548,0.21803 -0.74119,0.33287c-3.27307,1.46994 -6.43421,1.53907 -7.05611,0.15431c-0.6219,-1.38476 1.52978,-3.70162 4.80285,-5.17157c3.27308,-1.46994 6.43422,-1.53907 7.05611,-0.15431c0.57332,1.27658 -1.21513,3.37161 -4.06166,4.8387z"/>
  <path id="svg_3" stroke-miterlimit="4" stroke-width="1.5" stroke="#ff0000" fill-rule="evenodd" fill="#ff0000" d="m19.94766,37.48308l0,-33.58757"/>
 </g>
</svg>